name C:\Users\r0593348\3dpredictsim\Results\MidTarsalJoint\Fal_s1_bCst_PF_Natali2010_ls150_MT_k200_MTP_T5_ig24_PFx2.mot
datacolumns 128
datarows 4
range 0.56948136 0.60365024
endheader
time	pelvis_tilt	pelvis_list	pelvis_rotation	pelvis_tx	pelvis_ty	pelvis_tz	hip_flexion_l	hip_adduction_l	hip_rotation_l	hip_flexion_r	hip_adduction_r	hip_rotation_r	knee_angle_l	knee_angle_r	ankle_angle_l	ankle_angle_r	subtalar_angle_l	subtalar_angle_r	mtj_angle_l	mtj_angle_r	mtp_angle_l	mtp_angle_r	lumbar_extension	lumbar_bending	lumbar_rotation	arm_flex_l	arm_add_l	arm_rot_l	arm_flex_r	arm_add_r	arm_rot_r	elbow_flex_l	elbow_flex_r	pro_sup_l	pro_sup_r	glut_med1_l/activation	glut_med2_l/activation	glut_med3_l/activation	glut_min1_l/activation	glut_min2_l/activation	glut_min3_l/activation	semimem_l/activation	semiten_l/activation	bifemlh_l/activation	bifemsh_l/activation	sar_l/activation	add_long_l/activation	add_brev_l/activation	add_mag1_l/activation	add_mag2_l/activation	add_mag3_l/activation	tfl_l/activation	pect_l/activation	grac_l/activation	glut_max1_l/activation	glut_max2_l/activation	glut_max3_l/activation	iliacus_l/activation	psoas_l/activation	quad_fem_l/activation	gem_l/activation	peri_l/activation	rect_fem_l/activation	vas_med_l/activation	vas_int_l/activation	vas_lat_l/activation	med_gas_l/activation	lat_gas_l/activation	soleus_l/activation	tib_post_l/activation	flex_dig_l/activation	flex_hal_l/activation	tib_ant_l/activation	per_brev_l/activation	per_long_l/activation	per_tert_l/activation	ext_dig_l/activation	ext_hal_l/activation	ercspn_l/activation	intobl_l/activation	extobl_l/activation	glut_med1_r/activation	glut_med2_r/activation	glut_med3_r/activation	glut_min1_r/activation	glut_min2_r/activation	glut_min3_r/activation	semimem_r/activation	semiten_r/activation	bifemlh_r/activation	bifemsh_r/activation	sar_r/activation	add_long_r/activation	add_brev_r/activation	add_mag1_r/activation	add_mag2_r/activation	add_mag3_r/activation	tfl_r/activation	pect_r/activation	grac_r/activation	glut_max1_r/activation	glut_max2_r/activation	glut_max3_r/activation	iliacus_r/activation	psoas_r/activation	quad_fem_r/activation	gem_r/activation	peri_r/activation	rect_fem_r/activation	vas_med_r/activation	vas_int_r/activation	vas_lat_r/activation	med_gas_r/activation	lat_gas_r/activation	soleus_r/activation	tib_post_r/activation	flex_dig_r/activation	flex_hal_r/activation	tib_ant_r/activation	per_brev_r/activation	per_long_r/activation	per_tert_r/activation	ext_dig_r/activation	ext_hal_r/activation	ercspn_r/activation	intobl_r/activation	extobl_r/activation	
          0.56948136	         -2.92905838	          2.15146255	         -5.32286017	          0.71185170	          0.91920198	          0.00211393	         29.47647261	          3.28201743	         -2.50830116	        -16.53613618	         -0.86483893	          6.66555931	        -10.62154734	         -7.64827135	          5.54907625	         -2.61868173	         -5.48224358	          6.59348076	         -0.20528013	          6.78567496	          0.87758709	          8.85865363	         -1.90059242	         -0.18338314	          2.06785361	         -4.83341733	        -13.45905970	          7.04924061	          5.36062916	        -13.45009458	         16.51955527	         16.61916568	         32.82382336	         86.51662706	         86.51662706	          0.09041001	          0.05000069	          0.05949188	          0.05000038	          0.05000053	          0.05000234	          0.22753845	          0.05949493	          0.08106956	          0.05034573	          0.05000342	          0.08422404	          0.18535636	          0.20753161	          0.15054469	          0.09352754	          0.05949342	          0.05002450	          0.11998826	          0.05949651	          0.05950063	          0.10290020	          0.05000041	          0.05000070	          0.26172550	          0.05104980	          0.05000238	          0.05000045	          0.05000317	          0.05000336	          0.05000228	          0.05949145	          0.05949155	          0.05949138	          0.05549331	          0.05000916	          0.05097671	          0.43796764	          0.27622997	          0.19797294	          0.07970024	          0.43850768	          0.05007071	          0.05949216	          0.14315524	          0.11925089	          0.31931978	          0.10934937	          0.08339460	          0.32291629	          0.20929280	          0.11922551	          0.05000322	          0.05000071	          0.05000057	          0.05903574	          0.11676265	          0.05000026	          0.05000033	          0.05000051	          0.05000151	          0.05000127	          0.34225582	          0.05000120	          0.05000110	          0.05523825	          0.05009678	          0.05000522	          0.42732690	          0.64988910	          0.05000138	          0.05002455	          0.07078307	          0.25622302	          0.05439710	          0.05020158	          0.05005393	          0.31525849	          0.42928855	          0.36041587	          0.27533068	          0.27553742	          0.34665952	          0.05000023	          0.05000679	          0.11875129	          0.05000098	          0.05000032	          0.05000114	          0.05000005	          0.05000007	          0.05000010	
          0.58087098	         -2.92989458	          2.23738986	         -5.62494250	          0.72878864	          0.91829092	          0.00192429	         28.91312627	          3.63430535	         -2.30655314	        -16.56948219	         -1.17639578	          6.46090791	        -10.68315829	         -9.27089478	          4.86115882	         -3.02251284	         -5.86424441	          7.56421401	         -0.25353055	          5.83920839	          0.86206183	         10.65552008	         -1.71414075	         -0.37069054	          2.13864821	         -5.71498679	        -13.45276673	          6.83581847	          5.15367401	        -13.45562063	         16.92050345	         16.22210388	         33.97896440	         86.51662706	         86.51662706	          0.07598636	          0.05005766	          0.05000086	          0.05949522	          0.05949190	          0.05000550	          0.19123713	          0.05000323	          0.06813572	          0.05000103	          0.05000333	          0.11923547	          0.24377596	          0.22093982	          0.15243255	          0.09260177	          0.05000229	          0.07081176	          0.10084677	          0.05000503	          0.05000805	          0.10311892	          0.07049741	          0.06104840	          0.52422710	          0.18313593	          0.13662802	          0.08422038	          0.17923183	          0.17752205	          0.15321833	          0.05000016	          0.05000032	          0.05000006	          0.05000040	          0.05000486	          0.05000310	          0.50696584	          0.26589982	          0.16639245	          0.19758811	          0.47182652	          0.05949307	          0.05000073	          0.12031607	          0.10022545	          0.26837590	          0.09190371	          0.07008985	          0.27139825	          0.17590218	          0.10020433	          0.05001880	          0.05000305	          0.05000315	          0.05000219	          0.09813499	          0.07249928	          0.06716222	          0.05005475	          0.05004528	          0.05005750	          0.28765247	          0.05167697	          0.05002199	          0.05001539	          0.05000884	          0.05000989	          0.35915075	          0.55957530	          0.05000201	          0.05001599	          0.05949143	          0.21534490	          0.05000753	          0.09544513	          0.13231577	          0.26496171	          0.36079979	          0.33334722	          0.25754090	          0.23160710	          0.30670044	          0.05000045	          0.05000353	          0.11566302	          0.05000179	          0.05000050	          0.05000209	          0.05000022	          0.07183866	          0.05257532	
          0.59226061	         -2.92701084	          2.32314794	         -5.89779819	          0.74609243	          0.91742834	          0.00174621	         28.23270401	          3.92841925	         -2.04442883	        -16.55472996	         -1.48933651	          6.24823591	        -11.15252409	        -10.97076617	          4.17494618	         -3.52537360	         -6.24741043	          8.51330779	         -0.42932149	          4.68162695	          0.85738878	         12.65129464	         -1.50270187	         -0.56851760	          2.19950617	         -6.64010459	        -13.45019364	          6.65235791	          4.85813424	        -13.46038196	         17.24375049	         15.89175149	         35.11816370	         86.51662706	         86.51662706	          0.20127446	          0.05000037	          0.14839245	          0.05000343	          0.05000088	          0.05000110	          0.17727215	          0.08370311	          0.07744772	          0.05000088	          0.05009981	          0.10021282	          0.20488426	          0.18569209	          0.12811451	          0.09467741	          0.05000225	          0.05953139	          0.08483627	          0.05000290	          0.06700325	          0.08666796	          0.05949025	          0.05905235	          0.44059121	          0.15391839	          0.11483109	          0.07078375	          0.15063702	          0.14920002	          0.12877374	          0.05607731	          0.05847735	          0.05529911	          0.05156964	          0.05000370	          0.05000455	          0.42608406	          0.25761821	          0.16302366	          0.16606470	          0.55262890	          0.05000151	          0.05000005	          0.12176795	          0.08423534	          0.31247319	          0.07724136	          0.05890786	          0.22809968	          0.14783877	          0.08421780	          0.05001386	          0.05000470	          0.05000320	          0.05000086	          0.08247939	          0.10047150	          0.05950486	          0.05949390	          0.05949313	          0.05949290	          0.24176183	          0.06019320	          0.05071647	          0.05005321	          0.05007407	          0.05948478	          0.30185320	          0.55846457	          0.05942760	          0.05000721	          0.05000079	          0.18098851	          0.15363375	          0.08023833	          0.11122229	          0.22268929	          0.30323731	          0.28016461	          0.21645352	          0.19465750	          0.25777043	          0.05000009	          0.05000256	          0.14711290	          0.05000039	          0.05000014	          0.05000054	          0.05000034	          0.06037743	          0.05949217	
          0.60365024	         -2.92182863	          2.40945512	         -6.13525649	          0.76362261	          0.91663833	          0.00156799	         27.43543815	          4.16912728	         -1.77276369	        -16.47433496	         -1.79978652	          6.03276200	        -11.60652070	        -12.75724639	          3.49680185	         -4.15465000	         -6.64317135	          9.41903811	         -0.39869652	          3.35537113	          0.89040810	         14.78271346	         -1.28017477	         -0.77715853	          2.25090623	         -7.57427641	        -13.45183695	          6.51144216	          4.49165739	        -13.46622965	         17.49461040	         15.60888309	         36.23749490	         86.51662706	         86.51662706	          0.27734019	          0.24328864	          0.28964117	          0.19109836	          0.19091042	          0.16969961	          0.14898993	          0.07034988	          0.06509176	          0.08422098	          0.05002028	          0.08422488	          0.17219690	          0.15606731	          0.10767614	          0.11899488	          0.05000334	          0.05003606	          0.09004600	          0.17557806	          0.13780896	          0.09080591	          0.05000060	          0.05000058	          0.37029879	          0.12936260	          0.13820878	          0.05949097	          0.12660472	          0.12539716	          0.10822949	          0.05000174	          0.05000719	          0.05000019	          0.05000032	          0.05000146	          0.05000184	          0.54395056	          0.33827715	          0.18628490	          0.45188488	          0.49412943	          0.21585465	          0.06886122	          0.10976417	          0.07079631	          0.28097230	          0.06491831	          0.05000040	          0.36380028	          0.12425279	          0.07078190	          0.05000785	          0.05000074	          0.05000062	          0.05000196	          0.07078964	          0.08444560	          0.05001183	          0.05000299	          0.05000433	          0.05000294	          0.22575426	          0.05060083	          0.05000215	          0.05000577	          0.05000298	          0.05000190	          0.25952124	          0.53356307	          0.05000038	          0.05000257	          0.05000216	          0.15211351	          0.12913525	          0.06743848	          0.14174300	          0.18716107	          0.25485836	          0.23546667	          0.18192040	          0.16360208	          0.21664576	          0.05000104	          0.05691329	          0.15405367	          0.05000365	          0.07866790	          0.05000242	          0.05675561	          0.05074473	          0.05000076	
